<svg width="24" height="24" viewBox="0 0 24 24" fill="none" xmlns="http://www.w3.org/2000/svg">
<path d="M22.2075 2.45532C22.0913 2.35498 21.9499 2.28825 21.7986 2.26231C21.6473 2.23637 21.4917 2.25222 21.3488 2.30814L2.34938 9.74345C2.08011 9.84815 1.85215 10.0375 1.6998 10.283C1.54746 10.5284 1.47898 10.8168 1.50468 11.1045C1.53038 11.3923 1.64886 11.6639 1.84229 11.8785C2.03572 12.0931 2.29363 12.2391 2.57719 12.2944L7.5 13.2609V18.75C7.49903 19.049 7.58788 19.3414 7.75504 19.5893C7.9222 19.8372 8.15995 20.0291 8.4375 20.1403C8.71462 20.2535 9.01937 20.2806 9.31213 20.2183C9.6049 20.1559 9.87212 20.0069 10.0791 19.7906L12.4528 17.3288L16.2188 20.625C16.4905 20.866 16.8409 20.9994 17.2041 21C17.3632 20.9999 17.5214 20.9749 17.6728 20.9259C17.9203 20.8474 18.1428 20.7055 18.3183 20.5142C18.4938 20.3229 18.6162 20.0889 18.6731 19.8356L22.4784 3.28126C22.5125 3.13196 22.5052 2.97622 22.4575 2.83072C22.4098 2.68522 22.3234 2.55545 22.2075 2.45532ZM16.4756 5.83032L8.07656 11.8453L3.42656 10.9331L16.4756 5.83032ZM9 18.75V14.2988L11.3241 16.3369L9 18.75ZM17.2059 19.5L9.45469 12.7031L20.6109 4.7072L17.2059 19.5Z" fill="#F7F8FC"/>
</svg>
